<?xml version="1.0" encoding="UTF-8"?>
<svg version="1.1" xmlns="http://www.w3.org/2000/svg" width="525" height="313">
<path d="M0 0 C39.6 0 79.2 0 120 0 C120.6284103 68.49672266 120.6284103 68.49672266 120.7734375 88.6875 C120.77855583 89.39622002 120.78367415 90.10494003 120.78894758 90.83513641 C121.02660704 123.92460007 121.1148473 157.01384304 121.12283063 190.10411024 C121.12411826 195.08316278 121.12787254 200.06220939 121.13256836 205.04125977 C121.13866222 211.75035369 121.13868046 218.45942158 121.13431931 225.16851807 C121.13332445 227.63633207 121.13390575 230.10414727 121.13615799 232.57196045 C121.13869323 235.93666934 121.1349326 239.3013117 121.12939453 242.66601562 C121.13142128 243.64882759 121.13344803 244.63163956 121.13553619 245.6442337 C121.13271385 246.54719933 121.12989151 247.45016495 121.12698364 248.38049316 C121.1264181 249.54592525 121.1264181 249.54592525 121.12584114 250.73490143 C121 253 121 253 120 258 C80.4 258 40.8 258 0 258 C-0.125 210.625 -0.125 210.625 -0.11767578 195.71337891 C-0.14423829 191.26942602 -0.14423829 191.26942602 -0.17868042 186.82553101 C-0.19015892 184.85933721 -0.19001059 182.89305312 -0.1803894 180.92684937 C0.14352119 165.38271223 0.14352119 165.38271223 -7 152 C-19.42657708 129.18491771 -19.54104268 101.06409186 -16 76 C-15.8855957 75.18208984 -15.77119141 74.36417969 -15.65332031 73.52148438 C-13.29794726 57.72217239 -8.14364259 42.28728517 -1 28 C-0.67 18.76 -0.34 9.52 0 0 Z M1 34 C1 74.59 1 115.18 1 157 C1.33 157 1.66 157 2 157 C2.33 154.36 2.66 151.72 3 149 C3.66 149 4.32 149 5 149 C18.82107465 125.94599434 18.24425111 91.37603257 12 66 C9.58746169 56.74675936 6.82568572 47.76489956 3 39 C2.3125 36.0625 2.3125 36.0625 2 34 C1.67 34 1.34 34 1 34 Z M62.9375 92.875 C62.27427734 93.33519531 61.61105469 93.79539062 60.92773438 94.26953125 C59.24722469 95.4612596 57.6188671 96.72579493 56 98 C56 98.66 56 99.32 56 100 C55.14148438 100.38671875 55.14148438 100.38671875 54.265625 100.78125 C51.78871005 102.11365942 49.8658834 103.65056118 47.75 105.5 C47.04359375 106.1084375 46.3371875 106.716875 45.609375 107.34375 C43.76770496 108.85416368 43.76770496 108.85416368 44 111 C43.01 111.33 42.02 111.66 41 112 C39.63636792 113.97946592 38.30581356 115.9819245 37 118 C36.278125 118.70125 35.55625 119.4025 34.8125 120.125 C32.8811916 122.12290524 32.3872111 123.28952231 32 126 C31.34 126 30.68 126 30 126 C28.55941278 129.33200731 27.12310202 132.66584213 25.6875 136 C25.28337891 136.93457031 24.87925781 137.86914062 24.46289062 138.83203125 C19.47439643 149.04658171 19.47439643 149.04658171 18 160 C20.50122561 160.91881757 21.6498301 161.13154862 24.18359375 160.1796875 C28.77088013 157.52430855 32.3663253 154.91318814 36 151 C37.24432781 149.95156415 38.49496205 148.91059123 39.75 147.875 C52.00373335 137.1386145 60.71784243 122.33442683 66 107 C66.27328125 106.25621094 66.5465625 105.51242188 66.828125 104.74609375 C68.7748162 99.25909649 69.98371161 93.72708398 71 88 C68.37004325 88 65.11919986 91.32669688 62.9375 92.875 Z M37 163 C36.40316406 163.433125 35.80632812 163.86625 35.19140625 164.3125 C31.80871752 166.90832828 30.41592757 169.04198851 29 173 C42.01465058 173.56676704 52.00114074 171.44560614 63.50390625 165.3046875 C66 164 66 164 69 163 C69 162.34 69 161.68 69 161 C69.680625 160.95875 70.36125 160.9175 71.0625 160.875 C75.18503653 159.64701039 78.09996171 157.15076207 81 154 C81 153.34 81 152.68 81 152 C81.61875 151.71125 82.2375 151.4225 82.875 151.125 C85.13325765 150.06279958 85.13325765 150.06279958 87 148 C68.80686741 147.08526149 51.59155413 151.97393856 37 163 Z M28 185 C28 185.66 28 186.32 28 187 C27.34 187 26.68 187 26 187 C26 187.66 26 188.32 26 189 C27.98 189.66 29.96 190.32 32 191 C32 191.66 32 192.32 32 193 C37.91276693 194.72007765 43.44153092 195.21797749 49.5625 195.25 C50.27011475 195.25902344 50.97772949 195.26804688 51.70678711 195.27734375 C56.75889074 195.24927976 61.13947755 194.37778589 66 193 C63.77282032 190.77282032 62.1079858 190.12090609 59.1875 189 C58.33542969 188.67 57.48335937 188.34 56.60546875 188 C55.31576172 187.505 55.31576172 187.505 54 187 C53.2260791 186.65340332 52.4521582 186.30680664 51.65478516 185.94970703 C48.87070877 184.95374813 46.85953002 184.76859472 43.91796875 184.8046875 C42.98662109 184.81113281 42.05527344 184.81757813 41.09570312 184.82421875 C40.13599609 184.84097656 39.17628906 184.85773438 38.1875 184.875 C37.20845703 184.88402344 36.22941406 184.89304688 35.22070312 184.90234375 C32.81354939 184.92582818 30.40690257 184.9586716 28 185 Z " fill="#42AF4C" transform="translate(92,11)"/>
<path d="M0 0 C3.3 0 6.6 0 10 0 C12.56758585 6.94022097 15.13097447 13.88197175 17.69042969 20.82519531 C18.56231393 23.18858028 19.43535792 25.55153773 20.30957031 27.9140625 C21.56357731 31.30357801 22.81344992 34.69459274 24.0625 38.0859375 C24.45622803 39.14743011 24.84995605 40.20892273 25.25561523 41.30258179 C25.61598877 42.28344757 25.9763623 43.26431335 26.34765625 44.27490234 C26.66742432 45.14094086 26.98719238 46.00697937 27.31665039 46.89926147 C28 49 28 49 28 51 C24.04 51 20.08 51 16 51 C15.01 48.03 14.02 45.06 13 42 C7.39 41.67 1.78 41.34 -4 41 C-4.33 42.98 -4.66 44.96 -5 47 C-6.0625 49.375 -6.0625 49.375 -7 51 C-22.66114218 53.1637362 -22.66114218 53.1637362 -30 51 C-35.29262417 46.73569988 -37.6952798 40.2155627 -40 34 C-40.33 39.61 -40.66 45.22 -41 51 C-44.3 51 -47.6 51 -51 51 C-51 34.5 -51 18 -51 1 C-31 1 -31 1 -24 5 C-20.96136984 8.74764386 -20.15977474 12.20675781 -20 17 C-21.21220129 23.84952575 -23.59485848 26.81963275 -29 31 C-28.278125 32.05960938 -27.55625 33.11921875 -26.8125 34.2109375 C-25.87475838 35.5987951 -24.93727152 36.98682488 -24 38.375 C-23.52304687 39.07367188 -23.04609375 39.77234375 -22.5546875 40.4921875 C-21.87792969 41.49765625 -21.87792969 41.49765625 -21.1875 42.5234375 C-20.55908203 43.450354 -20.55908203 43.450354 -19.91796875 44.39599609 C-19 46 -19 46 -19 48 C-18.34 48 -17.68 48 -17 48 C-16.80145164 46.90217949 -16.80145164 46.90217949 -16.59889221 45.78218079 C-16.04856725 43.22562133 -15.33361975 40.92989839 -14.41772461 38.48510742 C-13.93733986 37.1943354 -13.93733986 37.1943354 -13.44725037 35.87748718 C-13.10243118 34.9627211 -12.757612 34.04795502 -12.40234375 33.10546875 C-12.04862198 32.15811356 -11.69490021 31.21075836 -11.33045959 30.23469543 C-10.20302204 27.21762195 -9.07033616 24.20255006 -7.9375 21.1875 C-7.17087676 19.13880176 -6.40459672 17.08997507 -5.63867188 15.04101562 C-3.76308947 10.02584603 -1.88279856 5.01246473 0 0 Z M-41 10 C-41 14.62 -41 19.24 -41 24 C-36.13061374 23.70339138 -36.13061374 23.70339138 -32 21.375 C-30.54668083 17.92336696 -31.07395051 15.57190516 -32 12 C-35.23112508 9.4452998 -35.23112508 9.4452998 -41 10 Z M4 16 C2.68 21.28 1.36 26.56 0 32 C3.3 32 6.6 32 10 32 C8.35 26.72 6.7 21.44 5 16 C4.67 16 4.34 16 4 16 Z " fill="#010101" transform="translate(401,16)"/>
<path d="M0 0 C5.47515379 0.35427466 8.97907809 3.68646287 13.125 6.9375 C14.54389663 8.03043389 15.96315344 9.12290038 17.3828125 10.21484375 C18.00559082 10.70073975 18.62836914 11.18663574 19.27001953 11.68725586 C20.8034193 12.85083059 22.3983905 13.93226033 24 15 C24 15.66 24 16.32 24 17 C24.61875 17.2475 25.2375 17.495 25.875 17.75 C28.40358627 19.23740369 28.71839004 20.43678009 30 23 C30.928125 23.4640625 30.928125 23.4640625 31.875 23.9375 C34.75638944 25.37819472 36.06051289 27.45442316 38 30 C39.051875 31.051875 39.051875 31.051875 40.125 32.125 C42.75806907 34.75806907 44 36.20375149 44 40 C44.61875 40.2475 45.2375 40.495 45.875 40.75 C48.41530728 42.2442984 49.02864183 43.24781851 50 46 C50 47.32 50 48.64 50 50 C50.66 50 51.32 50 52 50 C53.33333333 53.33333333 54.66666667 56.66666667 56 60 C56.53947266 61.21042969 56.53947266 61.21042969 57.08984375 62.4453125 C58.14369066 65.40332056 58.45048697 68.05970514 58.6875 71.1875 C58.77386719 72.23292969 58.86023438 73.27835937 58.94921875 74.35546875 C59 77 59 77 58 79 C51.09142011 77.09763742 44.76522894 74.32091271 39 70 C39 69.34 39 68.68 39 68 C38.40316406 67.71640625 37.80632813 67.4328125 37.19140625 67.140625 C18.01577068 57.15972378 8.13241683 31.31533772 2 12 C1.64808594 10.9378125 1.29617187 9.875625 0.93359375 8.78125 C-1.14574212 2.29148424 -1.14574212 2.29148424 0 0 Z " fill="#42AD4C" transform="translate(18,97)"/>
<path d="M0 0 C2.475 0.495 2.475 0.495 5 1 C5 87.13 5 173.26 5 262 C3.35 262.33 1.7 262.66 0 263 C0 176.21 0 89.42 0 0 Z " fill="#000000" transform="translate(229,9)"/>
<path d="M0 0 C20 0 20 0 26 3 C29.93770147 7.1505502 30.83776274 9.80979704 31.25 15.375 C30.93559818 19.93382641 29.94963551 23.20821941 26.50439453 26.37451172 C25.00292969 27.58300781 23.50146484 28.79150391 22 30 C22.36351562 30.5347998 22.72703125 31.06959961 23.1015625 31.62060547 C24.73915793 34.03553385 26.36964824 36.4551761 28 38.875 C28.57234375 39.71675781 29.1446875 40.55851562 29.734375 41.42578125 C30.27578125 42.23144531 30.8171875 43.03710938 31.375 43.8671875 C31.87773437 44.61081543 32.38046875 45.35444336 32.8984375 46.12060547 C34 48 34 48 34 50 C29.37705209 50.96460273 25.57473405 51.30487381 21 50 C16.82061457 45.89548955 14.41982508 40.25233351 12 35 C11.67 39.95 11.34 44.9 11 50 C7.37 50 3.74 50 0 50 C0 33.5 0 17 0 0 Z M11 9 C11 13.62 11 18.24 11 23 C16.490155 22.46167992 16.490155 22.46167992 18.875 20.875 C20.69515716 17.84140473 20.43004436 15.44035486 20 12 C18.42304368 9.9214392 18.42304368 9.9214392 16 9 C14.35 9 12.7 9 11 9 Z " fill="#010101" transform="translate(313,17)"/>
<path d="M0 0 C3.28916908 3.28916908 4.89983755 5.67284755 5.25 10.3125 C4.984656 14.22632394 4.36680088 15.93192479 2 19 C-1 21 -1 21 -4 21 C-2.44505919 23.08935735 -0.88155426 25.17128131 0.6875 27.25 C1.12255859 27.83652344 1.55761719 28.42304688 2.00585938 29.02734375 C5.26718254 33.32745874 8.40434266 37.30782471 13.8125 38.75 C14.534375 38.8325 15.25625 38.915 16 39 C16 40.32 16 41.64 16 43 C13.79229195 43.08165496 11.58369575 43.13948488 9.375 43.1875 C7.53035156 43.23970703 7.53035156 43.23970703 5.6484375 43.29296875 C0.76585774 42.90089864 -2.41602335 41.49632577 -5.9765625 38.1328125 C-6.52054687 37.47023437 -7.06453125 36.80765625 -7.625 36.125 C-8.49705078 35.073125 -8.49705078 35.073125 -9.38671875 34 C-9.91910156 33.34 -10.45148438 32.68 -11 32 C-11.804375 31.05125 -12.60875 30.1025 -13.4375 29.125 C-15 27 -15 27 -15 25 C-17.31 24.67 -19.62 24.34 -22 24 C-21.34 28.29 -20.68 32.58 -20 37 C-18.02 37.66 -16.04 38.32 -14 39 C-14 39.99 -14 40.98 -14 42 C-22.25 42 -30.5 42 -39 42 C-39 41.01 -39 40.02 -39 39 C-36.03 38.505 -36.03 38.505 -33 38 C-33 26.78 -33 15.56 -33 4 C-34.98 3.34 -36.96 2.68 -39 2 C-39 0.68 -39 -0.64 -39 -2 C-10.34907974 -5.53403422 -10.34907974 -5.53403422 0 0 Z M-22 1 C-22 7.27 -22 13.54 -22 20 C-14.46088909 20.32965197 -14.46088909 20.32965197 -9 17 C-6.60713116 14.60713116 -6.67949384 13.90552906 -6.625 10.625 C-6.6990349 7.33573523 -6.81410865 6.26555908 -8.75 3.5 C-13.37545076 0.41636616 -16.09682302 1 -22 1 Z " fill="#43AF4E" transform="translate(388,110)"/>
<path d="M0 0 C20 0 20 0 27 4 C30.61511504 8.50225983 30.49939009 12.53852222 30.35546875 18.1171875 C29.87833139 21.98671906 28.63065043 24.1501287 26 27 C24.68066237 28.01839383 23.34948545 29.02190655 22 30 C22.36351562 30.5347998 22.72703125 31.06959961 23.1015625 31.62060547 C24.73915793 34.03553385 26.36964824 36.4551761 28 38.875 C28.57234375 39.71675781 29.1446875 40.55851562 29.734375 41.42578125 C30.27578125 42.23144531 30.8171875 43.03710938 31.375 43.8671875 C31.87773437 44.61081543 32.38046875 45.35444336 32.8984375 46.12060547 C34 48 34 48 34 50 C29.31409808 51.1237351 25.63133367 51.46921562 21 50 C16.44755555 45.24435871 13.74769644 38.90475623 11 33 C10.67 38.61 10.34 44.22 10 50 C6.7 50 3.4 50 0 50 C0 33.5 0 17 0 0 Z M10 9 C10 13.62 10 18.24 10 23 C14.86938626 22.70339138 14.86938626 22.70339138 19 20.375 C20.45331917 16.92336696 19.92604949 14.57190516 19 11 C15.76887492 8.4452998 15.76887492 8.4452998 10 9 Z " fill="#010101" transform="translate(330,195)"/>
<path d="M0 0 C2.97 0 5.94 0 9 0 C13.30557103 10.91553218 17.48388955 21.8779078 21.61071777 32.86206055 C22.16314565 34.33231964 22.71612671 35.802371 23.26965332 37.2722168 C24.05523634 39.35920404 24.83853131 41.44703479 25.62109375 43.53515625 C26.0792749 44.755979 26.53745605 45.97680176 27.00952148 47.23461914 C28 50 28 50 28 51 C24.04 51 20.08 51 16 51 C13 44.375 13 44.375 13 41 C7.39 41 1.78 41 -4 41 C-4.474375 42.464375 -4.94875 43.92875 -5.4375 45.4375 C-6.875 49.875 -6.875 49.875 -8 51 C-9.85287502 51.07226502 -11.70833878 51.0838122 -13.5625 51.0625 C-14.57441406 51.05347656 -15.58632813 51.04445312 -16.62890625 51.03515625 C-17.41136719 51.02355469 -18.19382812 51.01195312 -19 51 C-17.10687996 44.39433963 -14.95276794 37.96499038 -12.4609375 31.5625 C-12.13461334 30.71574707 -11.80828918 29.86899414 -11.47207642 28.99658203 C-10.78975471 27.22801005 -10.1056873 25.46011062 -9.41992188 23.69287109 C-8.36734593 20.98027468 -7.31993953 18.26572605 -6.2734375 15.55078125 C-5.60706479 13.82540727 -4.94040851 12.10014278 -4.2734375 10.375 C-3.95990326 9.56361572 -3.64636902 8.75223145 -3.32333374 7.91625977 C-1.11809551 2.23619102 -1.11809551 2.23619102 0 0 Z M3 18 C1.68 22.62 0.36 27.24 -1 32 C2.3 32 5.6 32 9 32 C7.51868325 24.84207314 7.51868325 24.84207314 5 18 C4.34 18 3.68 18 3 18 Z " fill="#010101" transform="translate(437,194)"/>
<path d="M0 0 C1.23556641 0.01740234 1.23556641 0.01740234 2.49609375 0.03515625 C3.32238281 0.04417969 4.14867187 0.05320313 5 0.0625 C5.63808594 0.07410156 6.27617187 0.08570313 6.93359375 0.09765625 C9.50397212 6.87606497 12.0666806 13.65733644 14.62402344 20.44067383 C15.49529605 22.7489615 16.3683362 25.05658279 17.24316406 27.36352539 C18.49877419 30.6755174 19.7480524 33.98983721 20.99609375 37.3046875 C21.38982178 38.33914505 21.7835498 39.3736026 22.18920898 40.43940735 C22.54958252 41.40017685 22.90995605 42.36094635 23.28125 43.35083008 C23.60101807 44.19688309 23.92078613 45.0429361 24.25024414 45.91462708 C24.93359375 48.09765625 24.93359375 48.09765625 24.93359375 51.09765625 C21.30359375 51.09765625 17.67359375 51.09765625 13.93359375 51.09765625 C12.61359375 48.12765625 11.29359375 45.15765625 9.93359375 42.09765625 C4.65359375 42.09765625 -0.62640625 42.09765625 -6.06640625 42.09765625 C-7.38640625 45.06765625 -8.70640625 48.03765625 -10.06640625 51.09765625 C-13.69640625 51.09765625 -17.32640625 51.09765625 -21.06640625 51.09765625 C-19.12469714 44.42548705 -16.97998708 37.90626162 -14.52734375 31.40625 C-14.20101959 30.53492935 -13.87469543 29.6636087 -13.53848267 28.7658844 C-12.85602879 26.94610619 -12.17196206 25.12693206 -11.48632812 23.30834961 C-10.43290933 20.51260566 -9.38605628 17.71446318 -8.33984375 14.91601562 C-7.67356272 13.14178221 -7.00690978 11.36768842 -6.33984375 9.59375 C-6.02630951 8.75533066 -5.71277527 7.91691132 -5.38973999 7.05308533 C-2.77258931 0.13102974 -2.77258931 0.13102974 0 0 Z M0.93359375 17.09765625 C0.26351035 19.22158131 -0.40237422 21.34683149 -1.06640625 23.47265625 C-1.43765625 24.65601563 -1.80890625 25.839375 -2.19140625 27.05859375 C-3.15863231 29.89089064 -3.15863231 29.89089064 -3.06640625 32.09765625 C0.23359375 32.09765625 3.53359375 32.09765625 6.93359375 32.09765625 C6.4806451 30.34625482 6.02100627 28.59658281 5.55859375 26.84765625 C5.30335938 25.873125 5.048125 24.89859375 4.78515625 23.89453125 C4.03760866 21.43928322 3.16235558 19.3414822 1.93359375 17.09765625 C1.60359375 17.09765625 1.27359375 17.09765625 0.93359375 17.09765625 Z " fill="#010101" transform="translate(272.06640625,193.90234375)"/>
<path d="M0 0 C5.10204904 3.43407147 8.31576158 7.09570353 10 13 C10.93425508 20.62657206 10.85007046 27.75196805 6 34 C0.3933222 40.07852692 -6.28398227 43.34577072 -14.546875 43.9921875 C-23.33112138 44.02016281 -30.35374575 41.83101724 -37 36 C-41.78351116 30.62020629 -42.43442386 24.92122458 -42.33203125 17.94921875 C-41.66078157 11.98694221 -39.38421924 7.11687113 -34.875 3.11328125 C-24.57430274 -4.07284708 -11.37334035 -5.88976554 0 0 Z M-27 5 C-30.82376129 10.53786118 -31.60548397 17.05553645 -30.59765625 23.62109375 C-29.07533925 29.53921367 -26.52765929 33.87592037 -22 38 C-18.26380019 39.8680999 -14.06857253 39.54372628 -10 39 C-6.17967185 37.23616319 -4.23861021 34.40563735 -2.125 30.8125 C0.16245355 23.06057409 -0.26215522 15.25418765 -4 8 C-6.54384958 4.69160547 -8.96513265 2.34495578 -13 1 C-19.05482767 0.50370265 -22.2547529 0.80652582 -27 5 Z " fill="#43AF4E" transform="translate(335,110)"/>
<path d="M0 0 C8.91 0 17.82 0 27 0 C27 2.97 27 5.94 27 9 C21.72 9 16.44 9 11 9 C11 12.3 11 15.6 11 19 C15.95 19 20.9 19 26 19 C26 22.3 26 25.6 26 29 C21.05 29 16.1 29 11 29 C11 32.96 11 36.92 11 41 C16.28 41 21.56 41 27 41 C27 43.97 27 46.94 27 50 C18.09 50 9.18 50 0 50 C0 33.5 0 17 0 0 Z " fill="#010101" transform="translate(281,17)"/>
<path d="M0 0 C17.00783944 0.59712753 39.79310996 1.81191814 53.0625 13.875 C53.701875 14.57625 54.34125 15.2775 55 16 C55.58007812 16.44214844 56.16015625 16.88429687 56.7578125 17.33984375 C57.39460938 17.82582031 58.03140625 18.31179687 58.6875 18.8125 C59.28949219 19.25207031 59.89148437 19.69164062 60.51171875 20.14453125 C62.70384477 22.87749676 62.69671219 25.58295739 63 29 C41.54265389 29.68643169 21.6124529 24.29063484 5.40234375 9.26953125 C3.90768642 7.8462872 3.90768642 7.8462872 1.5625 6.4375 C1.046875 5.963125 0.53125 5.48875 0 5 C-0.09765625 2.41015625 -0.09765625 2.41015625 0 0 Z " fill="#42AC4C" transform="translate(3,157)"/>
<path d="M0 0 C0 4.29 0 8.58 0 13 C-0.99 12.34 -1.98 11.68 -3 11 C-7.2886003 8.57412508 -10.10602613 8.378543 -15 9 C-18.99305623 10.88351709 -20.63566352 12.38062798 -22.875 16.1875 C-24.57428717 21.94619541 -24.85124418 26.62547677 -22.8125 32.3125 C-20.14022873 36.27483326 -17.69428435 38.44751597 -13.125 39.9375 C-7.96050199 40.04078996 -4.21140519 37.80760346 0 35 C0 39.29 0 43.58 0 48 C-6.830684 51.415342 -12.3662879 51.95971907 -19.6875 49.75 C-27.66998859 46.75656678 -31.23500503 41.43467362 -35 34 C-37.26810915 27.12816931 -36.72884062 18.90912918 -34.171875 12.203125 C-31.22479599 6.66261646 -27.08543725 2.37638859 -21.875 -1.0625 C-14.58829474 -2.82541256 -6.78106826 -3.39053413 0 0 Z " fill="#010101" transform="translate(417,196)"/>
<path d="M0 0 C8.58 0 17.16 0 26 0 C26 2.97 26 5.94 26 9 C21.05 9 16.1 9 11 9 C11 12.3 11 15.6 11 19 C15.62 19 20.24 19 25 19 C25 22.3 25 25.6 25 29 C20.38 29 15.76 29 11 29 C11 35.93 11 42.86 11 50 C7.37 50 3.74 50 0 50 C0 33.5 0 17 0 0 Z " fill="#000000" transform="translate(299,195)"/>
<path d="M0 0 C1.3271261 3.9813783 1.06915913 7.85045227 1 12 C-0.32 12 -1.64 12 -3 12 C-4.02611949 10.34928604 -5.02308143 8.68029994 -6 7 C-9.25672842 4.28605965 -10.51956287 3.96061991 -14.8125 4.3125 C-15.864375 4.539375 -16.91625 4.76625 -18 5 C-18.67154684 7.28341743 -18.67154684 7.28341743 -18 10 C-16.25889314 11.46043663 -14.41169595 12.4955301 -12.43359375 13.61328125 C-9.75344436 15.14049318 -7.22785135 16.81297756 -4.6875 18.5625 C-3.86636719 19.12066406 -3.04523438 19.67882812 -2.19921875 20.25390625 C1.42265984 23.12953632 3.33828653 25.69116876 3.9375 30.3125 C4.35089511 35.43353732 3.08934606 37.93507097 0 42 C-3.77762498 45.06293917 -7.18029159 45.77049008 -12 46 C-15.13540675 45.59333246 -18.22312103 45.06765067 -21.328125 44.47265625 C-24.04012892 43.91290202 -24.04012892 43.91290202 -27 44 C-27.33872513 42.58461283 -27.67074624 41.16762037 -28 39.75 C-28.185625 38.96109375 -28.37125 38.1721875 -28.5625 37.359375 C-29 35 -29 35 -29 31 C-26.6875 31.1875 -26.6875 31.1875 -24 32 C-21 36.03448276 -21 36.03448276 -21 39 C-17.65559323 39.58718592 -14.40060685 40.05863115 -11 40 C-8.3442285 38.26959882 -8.3442285 38.26959882 -7 36 C-7.58791231 33.03913727 -8.12337387 30.73203679 -10.50683594 28.74169922 C-12.42981672 27.56357832 -14.37718467 26.48370443 -16.375 25.4375 C-22.15181501 22.34435863 -26.7847033 19.72690988 -28.9375 13.125 C-29.02217564 8.89121784 -28.21270471 6.62078952 -26 3 C-18.49506399 -3.1224478 -8.8959658 -1.31792086 0 0 Z " fill="#45AD4F" transform="translate(511,108)"/>
<path d="M0 0 C14.85 0 29.7 0 45 0 C45.66 4.29 46.32 8.58 47 13 C45.68 13.33 44.36 13.66 43 14 C42.01 11.69 41.02 9.38 40 7 C36.04 6.67 32.08 6.34 28 6 C28.33 17.22 28.66 28.44 29 40 C31.31 40.66 33.62 41.32 36 42 C36 42.99 36 43.98 36 45 C27.42 45 18.84 45 10 45 C10 44.01 10 43.02 10 42 C11.98 41.34 13.96 40.68 16 40 C16.33 28.78 16.66 17.56 17 6 C11.555 6.495 11.555 6.495 6 7 C5.01 9.31 4.02 11.62 3 14 C1.68 14 0.36 14 -1 14 C-1.02736707 12.60427948 -1.04655989 11.20839779 -1.0625 9.8125 C-1.07410156 9.03519531 -1.08570313 8.25789063 -1.09765625 7.45703125 C-1 5 -1 5 0 0 Z " fill="#45AF4F" transform="translate(405,107)"/>
<path d="M0 0 C11.88 0 23.76 0 36 0 C36 3.63 36 7.26 36 11 C34.68 11 33.36 11 32 11 C31.34 9.35 30.68 7.7 30 6 C25.05 5.67 20.1 5.34 15 5 C15 9.95 15 14.9 15 20 C19.62 19.67 24.24 19.34 29 19 C29.33 17.68 29.66 16.36 30 15 C31.32 15 32.64 15 34 15 C34 19.62 34 24.24 34 29 C32.68 29.33 31.36 29.66 30 30 C29.80664062 29.35546875 29.61328125 28.7109375 29.4140625 28.046875 C28.11291753 25.65648799 28.11291753 25.65648799 24.9609375 25.390625 C23.77757812 25.34421875 22.59421875 25.2978125 21.375 25.25 C19.27125 25.1675 17.1675 25.085 15 25 C15.33 29.95 15.66 34.9 16 40 C17.65 40.33 19.3 40.66 21 41 C21 41.99 21 42.98 21 44 C13.74 44 6.48 44 -1 44 C-1 43.01 -1 42.02 -1 41 C-0.360625 40.87625 0.27875 40.7525 0.9375 40.625 C1.618125 40.41875 2.29875 40.2125 3 40 C4.47712785 37.0457443 4.12989998 34.38739796 4.1328125 31.09375 C4.13376923 30.41324585 4.13472595 29.7327417 4.13571167 29.03161621 C4.13639231 27.59252836 4.13454607 26.15343743 4.13037109 24.71435547 C4.12502115 22.50871907 4.13031991 20.3032863 4.13671875 18.09765625 C4.13605795 16.70052038 4.13477674 15.30338464 4.1328125 13.90625 C4.13168457 12.63072266 4.13055664 11.35519531 4.12939453 10.04101562 C4.21102599 7.08139694 4.21102599 7.08139694 3 5 C0.97536745 4.34786708 0.97536745 4.34786708 -1 4 C-0.67 2.68 -0.34 1.36 0 0 Z " fill="#45AE4F" transform="translate(251,108)"/>
<path d="M0 0 C9.9 0 19.8 0 30 0 C30 2.97 30 5.94 30 9 C26.7 9 23.4 9 20 9 C20 22.53 20 36.06 20 50 C16.7 50 13.4 50 10 50 C10 36.47 10 22.94 10 9 C6.7 9 3.4 9 0 9 C0 6.03 0 3.06 0 0 Z " fill="#010101" transform="translate(248,17)"/>
<path d="M0 0 C7.59 0 15.18 0 23 0 C23.33 1.32 23.66 2.64 24 4 C23.195625 4.12375 22.39125 4.2475 21.5625 4.375 C20.716875 4.58125 19.87125 4.7875 19 5 C17.49393485 8.01213029 17.87839669 11.11282622 17.90234375 14.4140625 C17.90446617 15.50852188 17.90446617 15.50852188 17.90663147 16.62509155 C17.91223469 18.95843585 17.92478765 21.29168464 17.9375 23.625 C17.94251459 25.20572778 17.94707757 26.78645707 17.95117188 28.3671875 C17.96220516 32.24482854 17.97947189 36.12239807 18 40 C19.98 40.33 21.96 40.66 24 41 C24 41.99 24 42.98 24 44 C16.08 44 8.16 44 0 44 C0 43.01 0 42.02 0 41 C1.65 40.34 3.3 39.68 5 39 C5.33 27.78 5.66 16.56 6 5 C3.03 4.505 3.03 4.505 0 4 C0 2.68 0 1.36 0 0 Z " fill="#40B24B" transform="translate(454,108)"/>
<path d="M0 0 C0 0.99 0 1.98 0 3 C-9.01518196 10.53822662 -18.84246358 11.15024796 -30.0625 11.3125 C-30.90151855 11.33038574 -31.74053711 11.34827148 -32.60498047 11.36669922 C-38.56495516 11.35852687 -43.47097403 10.20310804 -49 8 C-47.48867896 3.46603687 -44.27502567 2.56556962 -40.16796875 0.4296875 C-28.66234875 -4.7627378 -11.14440555 -7.4296037 0 0 Z " fill="#44AD4E" transform="translate(72,197)"/>
<path d="M0 0 C3.3 0 6.6 0 10 0 C10 16.5 10 33 10 50 C6.7 50 3.4 50 0 50 C0 33.5 0 17 0 0 Z " fill="#010101" transform="translate(367,195)"/>
<path d="M0 0 C0.33 0 0.66 0 1 0 C1 7.92 1 15.84 1 24 C39.28 23.67 77.56 23.34 117 23 C116.505 20.03 116.505 20.03 116 17 C116.99 16.67 117.98 16.34 119 16 C120 19 120 19 120 26 C80.4 26 40.8 26 0 26 C0 17.42 0 8.84 0 0 Z " fill="#55A35C" transform="translate(92,243)"/>
<path d="M0 0 C0.66 0.33 1.32 0.66 2 1 C2 1.66 2 2.32 2 3 C1.01 3.66 0.02 4.32 -1 5 C0.32 5.66 1.64 6.32 3 7 C2.01 7.33 1.02 7.66 0 8 C-0.33 8.99 -0.66 9.98 -1 11 C-1 9.68 -1 8.36 -1 7 C-2.98 7.99 -2.98 7.99 -5 9 C-4.67 10.98 -4.34 12.96 -4 15 C-3.195625 14.71125 -2.39125 14.4225 -1.5625 14.125 C1.89195604 13.03411914 5.31234789 12.21615071 8.8515625 11.46484375 C10.25568139 11.16104348 11.65282959 10.82241034 13.0390625 10.4453125 C16.02028036 9.76830287 18.95713717 9.94148341 22 10 C18.76200657 11.78245311 15.56022025 12.72327368 12 13.6875 C2.8975691 16.43559642 -11.31100915 22.37171644 -16.2109375 31.17578125 C-16.60152344 32.07876953 -16.60152344 32.07876953 -17 33 C-17.66 33 -18.32 33 -19 33 C-19 31.35 -19 29.7 -19 28 C-17.68 27.67 -16.36 27.34 -15 27 C-15 26.01 -15 25.02 -15 24 C-15.66 23.67 -16.32 23.34 -17 23 C-16.835 22.401875 -16.67 21.80375 -16.5 21.1875 C-15.8885876 18.88655664 -15.8885876 18.88655664 -16 16 C-12.6297855 12.20850869 -8.74231424 9.01054876 -4.8671875 5.74609375 C-2.96855729 3.97059646 -1.49454708 2.1211429 0 0 Z " fill="#4AAC53" transform="translate(139,150)"/>
<path d="M0 0 C1.32 0.33 2.64 0.66 4 1 C3.98428955 1.83978394 3.98428955 1.83978394 3.96826172 2.6965332 C3.92666674 5.23514307 3.90066315 7.7736812 3.875 10.3125 C3.85824219 11.19357422 3.84148437 12.07464844 3.82421875 12.98242188 C3.81455078 14.25375977 3.81455078 14.25375977 3.8046875 15.55078125 C3.78897705 16.72120972 3.78897705 16.72120972 3.77294922 17.9152832 C3.87119141 20.3065848 3.87119141 20.3065848 6 23 C6.4140625 25.26171875 6.4140625 25.26171875 6.625 27.6875 C6.69976562 28.49574219 6.77453125 29.30398437 6.8515625 30.13671875 C6.92503906 31.05904297 6.92503906 31.05904297 7 32 C5.16015625 33.05859375 5.16015625 33.05859375 3 34 C-0.52026231 32.71209915 -1.81596591 31.29191614 -3.8125 28.125 C-6.58659418 20.7169076 -5.93522623 11.26082278 -3 4 C-1.375 1.5625 -1.375 1.5625 0 0 Z " fill="#42B14C" transform="translate(300,113)"/>
<path d="M0 0 C1.11483375 3.50619471 0.97273134 6.59499311 0.8125 10.25 C0.73672144 16.36050769 1.77454835 19.85943644 5 25 C8.7763932 25.2981424 8.7763932 25.2981424 11 24 C11 22.35 11 20.7 11 19 C11.556875 19.7425 12.11375 20.485 12.6875 21.25 C16.64439906 26.17483059 16.64439906 26.17483059 22.3671875 28.38671875 C26.49588985 28.56436321 29.2534217 28.39711612 32.9375 26.4375 C37.94492654 20.51963227 38.56236326 14.50018826 39 7 C39.33 7 39.66 7 40 7 C40.06058594 7.61488281 40.12117188 8.22976562 40.18359375 8.86328125 C40.26738281 9.67152344 40.35117187 10.47976562 40.4375 11.3125 C40.51871094 12.11300781 40.59992188 12.91351563 40.68359375 13.73828125 C40.95265693 16.16087179 40.95265693 16.16087179 42 19 C41.75 21.125 41.75 21.125 41 23 C40.01 23.33 39.02 23.66 38 24 C36.61423077 25.62332967 35.27358732 27.28724465 34 29 C34.99 29.66 35.98 30.32 37 31 C29.02276514 34.85995235 20.33324971 34.62587293 12 32 C6.17596251 29.12799373 2.00906649 25.76737744 -1 20 C-2.00311695 16.82907327 -2.16449386 13.87998472 -2.1875 10.5625 C-2.20167969 9.63566406 -2.21585937 8.70882812 -2.23046875 7.75390625 C-1.98507562 4.82166627 -1.22201577 2.66138611 0 0 Z " fill="#4CA756" transform="translate(295,120)"/>
<path d="M0 0 C7.59 0 15.18 0 23 0 C23.33 1.32 23.66 2.64 24 4 C21.36 4.66 18.72 5.32 16 6 C16 5.34 16 4.68 16 4 C15.34 4 14.68 4 14 4 C13.690625 4.78375 13.38125 5.5675 13.0625 6.375 C12 9 12 9 11 11 C10.01 11.33 9.02 11.66 8 12 C8 22.23 8 32.46 8 43 C12.95 42.505 12.95 42.505 18 42 C17.01 41.01 16.02 40.02 15 39 C15.3125 36.3125 15.3125 36.3125 16 34 C18 37.75 18 37.75 18 40 C19.98 40.33 21.96 40.66 24 41 C24 41.99 24 42.98 24 44 C16.08 44 8.16 44 0 44 C0 43.01 0 42.02 0 41 C1.65 40.34 3.3 39.68 5 39 C5.33 27.78 5.66 16.56 6 5 C3.03 4.505 3.03 4.505 0 4 C0 2.68 0 1.36 0 0 Z " fill="#46A850" transform="translate(454,108)"/>
<path d="M0 0 C39.6 0 79.2 0 120 0 C119.67 1.32 119.34 2.64 119 4 C118.505 2.515 118.505 2.515 118 1 C79.39 1.33 40.78 1.66 1 2 C-0.21176732 18.56118735 -0.21176732 18.56118735 3 34 C2.34 34 1.68 34 1 34 C1 40.27 1 46.54 1 53 C0.67 53 0.34 53 0 53 C-0.33 47.72 -0.66 42.44 -1 37 C-2.485 37.495 -2.485 37.495 -4 38 C-3.46599103 34.08393425 -2.80330533 31.60661066 -1 28 C-0.67 18.76 -0.34 9.52 0 0 Z " fill="#5EA063" transform="translate(92,11)"/>
<path d="M0 0 C14.85 0 29.7 0 45 0 C45.66 4.29 46.32 8.58 47 13 C45.68 13.33 44.36 13.66 43 14 C42.34 11.69 41.68 9.38 41 7 C41.99 6.34 42.98 5.68 44 5 C44 4.01 44 3.02 44 2 C32.78 2 21.56 2 10 2 C10 2.66 10 3.32 10 4 C12.31 4 14.62 4 17 4 C17 4.66 17 5.32 17 6 C11.555 6.495 11.555 6.495 6 7 C5.01 9.31 4.02 11.62 3 14 C1.68 14 0.36 14 -1 14 C-1.02736707 12.60427948 -1.04655989 11.20839779 -1.0625 9.8125 C-1.07410156 9.03519531 -1.08570313 8.25789063 -1.09765625 7.45703125 C-1 5 -1 5 0 0 Z " fill="#52A359" transform="translate(405,107)"/>
<path d="M0 0 C2.64 0.33 5.28 0.66 8 1 C8.33 1.99 8.66 2.98 9 4 C10.32 3.34 11.64 2.68 13 2 C13 2.66 13 3.32 13 4 C13.66 4 14.32 4 15 4 C16.3671875 5.828125 16.3671875 5.828125 17.875 8.25 C19.99384476 11.54771181 22.04281036 14.38402455 25 17 C22.30812513 18.30748208 20.45174044 19.02203612 17.4375 18.875 C14.43339265 17.79660249 12.97627267 16.48863966 11 14 C11 13.01 11 12.02 11 11 C10.236875 10.731875 9.47375 10.46375 8.6875 10.1875 C6.11011382 9.04865495 4.73045136 8.18583329 3 6 C3 5.34 3 4.68 3 4 C2.34 4 1.68 4 1 4 C0.67 2.68 0.34 1.36 0 0 Z " fill="#41B24A" transform="translate(370,131)"/>
<path d="M0 0 C0 0.33 0 0.66 0 1 C-1.65 1 -3.3 1 -5 1 C-3.74458443 3.51083114 -2.49936512 3.87125446 0 5 C-0.33 5.66 -0.66 6.32 -1 7 C-1.495 6.67 -1.99 6.34 -2.5 6 C-7.0749232 4.17003072 -11.32779608 4.33111843 -15.8125 6.125 C-20.07223699 9.77620314 -21.09919281 13.71555939 -21.625 19.125 C-21.70621094 20.36636719 -21.70621094 20.36636719 -21.7890625 21.6328125 C-21.98715473 23.85584752 -22.39719003 25.85557765 -23 28 C-24.16213749 25.67572502 -24.11531407 24.33819644 -24.09765625 21.75390625 C-24.09443359 20.91666016 -24.09121094 20.07941406 -24.08789062 19.21679688 C-24.07951172 18.34087891 -24.07113281 17.46496094 -24.0625 16.5625 C-24.05798828 15.69044922 -24.05347656 14.81839844 -24.04882812 13.91992188 C-24.04009923 12.29759371 -24.02932158 10.67527439 -24.01586914 9.05297852 C-24.00284994 7.36869435 -24 5.68433448 -24 4 C-15.97331823 -0.1428035 -8.92981438 -0.46321804 0 0 Z " fill="#48AC4F" transform="translate(327,107)"/>
<path d="M0 0 C0.99 0.33 1.98 0.66 3 1 C2.01 5.29 1.02 9.58 0 14 C-1.98 14.33 -3.96 14.66 -6 15 C-7.875 13.5625 -7.875 13.5625 -9 12 C-9.721875 12.53625 -10.44375 13.0725 -11.1875 13.625 C-14 15 -14 15 -16.8125 14.1875 C-17.534375 13.795625 -18.25625 13.40375 -19 13 C-18.6875 10.125 -18.6875 10.125 -18 7 C-15 5 -15 5 -12.375 5.25 C-11.59125 5.4975 -10.8075 5.745 -10 6 C-9.67 6.66 -9.34 7.32 -9 8 C-8.13375 7.2884375 -8.13375 7.2884375 -7.25 6.5625 C-5.07417916 5.0515133 -3.57397552 4.45963849 -1 4 C-0.67 2.68 -0.34 1.36 0 0 Z M-4 7 C-4.66 7.66 -5.32 8.32 -6 9 C-6 9.99 -6 10.98 -6 12 C-4.68 11.67 -3.36 11.34 -2 11 C-2.33 9.68 -2.66 8.36 -3 7 C-3.33 7 -3.66 7 -4 7 Z M-15.5625 8.5 C-16.036875 8.995 -16.51125 9.49 -17 10 C-16.67 10.66 -16.34 11.32 -16 12 C-14.68 11.67 -13.36 11.34 -12 11 C-12.33 9.68 -12.66 8.36 -13 7 C-14.24076302 6.88457803 -14.24076302 6.88457803 -15.5625 8.5 Z " fill="#080A07" transform="translate(194,286)"/>
<path d="M0 0 C0.99 0.33 1.98 0.66 3 1 C2.67 2.32 2.34 3.64 2 5 C2.99 5 3.98 5 5 5 C5 4.01 5 3.02 5 2 C5.66 2 6.32 2 7 2 C7 2.99 7 3.98 7 5 C8.65 5 10.3 5 12 5 C11.67 7.31 11.34 9.62 11 12 C13.50037734 9.82575883 14.43628586 8.26954202 15 5 C15.66 5 16.32 5 17 5 C16.67 7.97 16.34 10.94 16 14 C14.02 14.33 12.04 14.66 10 15 C8.23537317 11.91190305 8 10.76687864 8 7 C7.34 7 6.68 7 6 7 C5.67 9.31 5.34 11.62 5 14 C4.34 14 3.68 14 3 14 C3.33 11.69 3.66 9.38 4 7 C3.34 7 2.68 7 2 7 C1.34 9.31 0.68 11.62 0 14 C-0.66 14 -1.32 14 -2 14 C-1.85795259 12.41632253 -1.71119847 10.83306682 -1.5625 9.25 C-1.48128906 8.36828125 -1.40007812 7.4865625 -1.31640625 6.578125 C-1.03761535 4.30649548 -0.61209423 2.20148177 0 0 Z " fill="#0A0A08" transform="translate(259,286)"/>
<path d="M0 0 C2.05078125 0.03255208 4.1015625 0.06510417 6.15234375 0.09765625 C6.15234375 0.75765625 6.15234375 1.41765625 6.15234375 2.09765625 C4.17234375 2.42765625 2.19234375 2.75765625 0.15234375 3.09765625 C-0.17765625 4.08765625 -0.50765625 5.07765625 -0.84765625 6.09765625 C2.56890399 6.26442907 2.56890399 6.26442907 6.15234375 6.09765625 C6.81234375 5.43765625 7.47234375 4.77765625 8.15234375 4.09765625 C10.71484375 3.91015625 10.71484375 3.91015625 13.15234375 4.09765625 C14.15234375 5.09765625 14.15234375 5.09765625 14.46484375 7.97265625 C14.15234375 11.09765625 14.15234375 11.09765625 12.46484375 13.09765625 C10.15234375 14.09765625 10.15234375 14.09765625 7.40234375 13.28515625 C6.65984375 12.89328125 5.91734375 12.50140625 5.15234375 12.09765625 C5.15234375 10.77765625 5.15234375 9.45765625 5.15234375 8.09765625 C2.84234375 8.09765625 0.53234375 8.09765625 -1.84765625 8.09765625 C-1.84765625 9.74765625 -1.84765625 11.39765625 -1.84765625 13.09765625 C-2.83765625 13.09765625 -3.82765625 13.09765625 -4.84765625 13.09765625 C-4.54006447 11.11772084 -4.22644945 9.13872026 -3.91015625 7.16015625 C-3.73613281 6.05800781 -3.56210938 4.95585937 -3.3828125 3.8203125 C-2.65953404 0.14056734 -2.65953404 0.14056734 0 0 Z M7.15234375 8.09765625 C7.48234375 9.08765625 7.81234375 10.07765625 8.15234375 11.09765625 C9.47234375 10.76765625 10.79234375 10.43765625 12.15234375 10.09765625 C11.82234375 8.77765625 11.49234375 7.45765625 11.15234375 6.09765625 C9.69009359 6.00520622 9.69009359 6.00520622 7.15234375 8.09765625 Z " fill="#0C0E0C" transform="translate(159.84765625,286.90234375)"/>
<path d="M0 0 C5.28 0.33 10.56 0.66 16 1 C16 1.66 16 2.32 16 3 C14.68 3 13.36 3 12 3 C11.7834375 4.175625 11.7834375 4.175625 11.5625 5.375 C11 8 11 8 10 10 C10.66 10 11.32 10 12 10 C12.33 11.32 12.66 12.64 13 14 C9.55245914 12.46775962 6.90206666 10.39420499 4 8 C3.236875 7.525625 2.47375 7.05125 1.6875 6.5625 C1.130625 6.046875 0.57375 5.53125 0 5 C0 3.35 0 1.7 0 0 Z " fill="#51AB5D" transform="translate(3,157)"/>
<path d="M0 0 C4.49113411 0 8.59538982 0.04765185 13 1 C13.75 3.25 13.75 3.25 14 6 C12.375 8.375 12.375 8.375 10 10 C7.25 9.75 7.25 9.75 5 9 C4.87625 8.195625 4.7525 7.39125 4.625 6.5625 C4.41875 5.716875 4.2125 4.87125 4 4 C3.34 3.67 2.68 3.34 2 3 C1.67 4.98 1.34 6.96 1 9 C0.01 8.67 -0.98 8.34 -2 8 C-1.34 5.36 -0.68 2.72 0 0 Z M9 2 C8.67 2.66 8.34 3.32 8 4 C8.99 3.67 9.98 3.34 11 3 C10.34 2.67 9.68 2.34 9 2 Z " fill="#090909" transform="translate(278,291)"/>
<path d="M0 0 C2.33333333 0 4.66666667 0 7 0 C8.2375 -0.061875 8.2375 -0.061875 9.5 -0.125 C12 0 12 0 14 2 C13.625 5.125 13.625 5.125 13 8 C10.1875 9.125 10.1875 9.125 7 10 C6.01 9.34 5.02 8.68 4 8 C4 6.68 4 5.36 4 4 C3.34 3.67 2.68 3.34 2 3 C1.67 4.98 1.34 6.96 1 9 C0.01 9 -0.98 9 -2 9 C-1.34 6.03 -0.68 3.06 0 0 Z M7.4375 3.5 C6.963125 3.995 6.48875 4.49 6 5 C6.33 5.66 6.66 6.32 7 7 C8.32 6.67 9.64 6.34 11 6 C10.67 4.68 10.34 3.36 10 2 C8.75923698 1.88457803 8.75923698 1.88457803 7.4375 3.5 Z " fill="#070706" transform="translate(367,291)"/>
<path d="M0 0 C-0.08768248 1.5843317 -0.19587329 3.16753567 -0.3125 4.75 C-0.37050781 5.63171875 -0.42851562 6.5134375 -0.48828125 7.421875 C-1.07345258 10.37006642 -1.92433729 11.8445041 -4 14 C-6.6875 14.25 -6.6875 14.25 -9 14 C-9.66 12.68 -10.32 11.36 -11 10 C-10.01 10 -9.02 10 -8 10 C-8 10.66 -8 11.32 -8 12 C-6.68 11.67 -5.36 11.34 -4 11 C-5.98 10.01 -7.96 9.02 -10 8 C-10.21917317 5.29686424 -10.32851983 3.56041618 -8.9375 1.1875 C-6.00731249 -0.60842137 -3.3527047 -0.18977574 0 0 Z M-6.5625 3.5 C-7.036875 3.995 -7.51125 4.49 -8 5 C-7.67 5.66 -7.34 6.32 -7 7 C-5.68 6.67 -4.36 6.34 -3 6 C-3.33 4.68 -3.66 3.36 -4 2 C-5.24076302 1.88457803 -5.24076302 1.88457803 -6.5625 3.5 Z " fill="#0B0B0B" transform="translate(227,291)"/>
<path d="M0 0 C0.99 0.33 1.98 0.66 3 1 C2.34 1 1.68 1 1 1 C1.11815307 5.23603463 1.24239432 9.47183326 1.37231445 13.70751953 C1.41566231 15.1488762 1.45733752 16.59028418 1.49731445 18.03173828 C1.55502088 20.10204541 1.61871371 22.17209432 1.68359375 24.2421875 C1.72025146 25.4885498 1.75690918 26.73491211 1.79467773 28.01904297 C1.80289479 30.92636942 1.80289479 30.92636942 3 33 C2.34 33 1.68 33 1 33 C1 39.27 1 45.54 1 52 C0.67 52 0.34 52 0 52 C-0.33 46.72 -0.66 41.44 -1 36 C-2.485 36.495 -2.485 36.495 -4 37 C-3.24035677 31.42928298 -3.24035677 31.42928298 -1.98681641 29.19042969 C-0.68348113 26.29742521 -0.67556544 23.86997899 -0.5859375 20.703125 C-0.54726562 19.49785156 -0.50859375 18.29257812 -0.46875 17.05078125 C-0.4378125 15.79652344 -0.406875 14.54226562 -0.375 13.25 C-0.33632812 11.98027344 -0.29765625 10.71054687 -0.2578125 9.40234375 C-0.16355778 6.2683743 -0.07794834 3.13441051 0 0 Z " fill="#55A45E" transform="translate(92,12)"/>
<path d="M0 0 C2 3 2 3 2 5 C2.99 5.33 3.98 5.66 5 6 C5.0825 7.2375 5.165 8.475 5.25 9.75 C5.78850923 14.83770659 7.36541467 19.33439415 9.16015625 24.10546875 C10.05937332 27.20463085 10.14741001 29.79026595 10 33 C10.66 33.33 11.32 33.66 12 34 C12 38.95 12 43.9 12 49 C11.67 49 11.34 49 11 49 C10.85304688 47.86046875 10.70609375 46.7209375 10.5546875 45.546875 C8.69833865 32.13164159 5.35772764 19.43044956 0.81640625 6.67578125 C0 4 0 4 0 0 Z " fill="#54A15C" transform="translate(95,47)"/>
<path d="M0 0 C15.07186147 9.36450216 15.07186147 9.36450216 19 13 C19 13.66 19 14.32 19 15 C19.99 15.33 20.98 15.66 22 16 C21.67 16.66 21.34 17.32 21 18 C19.82780457 17.21654285 18.66236332 16.42297164 17.5 15.625 C16.8503125 15.18414062 16.200625 14.74328125 15.53125 14.2890625 C15.0259375 13.86367187 14.520625 13.43828125 14 13 C14 12.34 14 11.68 14 11 C13.01 11.33 12.02 11.66 11 12 C10.67 11.67 10.34 11.34 10 11 C7.66702567 10.95907063 5.33294775 10.95758277 3 11 C2.67 10.01 2.34 9.02 2 8 C2.66 7.01 3.32 6.02 4 5 C3.01 4.319375 3.01 4.319375 2 3.625 C1.34 3.08875 0.68 2.5525 0 2 C0 1.34 0 0.68 0 0 Z " fill="#4BA357" transform="translate(23,99)"/>
<path d="M0 0 C0.33 0 0.66 0 1 0 C1.0246826 4.94791294 1.04285166 9.8957902 1.05493164 14.84375 C1.05996653 16.52767562 1.06679481 18.21159686 1.07543945 19.89550781 C1.08754196 22.31316203 1.09323668 24.73075856 1.09765625 27.1484375 C1.10281754 27.9036972 1.10797882 28.65895691 1.11329651 29.43710327 C1.11387171 34.77225659 1.11387171 34.77225659 0 37 C4.62 37 9.24 37 14 37 C14 37.33 14 37.66 14 38 C7.07 38 0.14 38 -7 38 C-7 37.01 -7 36.02 -7 35 C-4.03 34.505 -4.03 34.505 -1 34 C-0.67 22.78 -0.34 11.56 0 0 Z " fill="#4CA455" transform="translate(356,114)"/>
<path d="M0 0 C1.81242052 -0.02687279 3.62495233 -0.04633715 5.4375 -0.0625 C6.44683594 -0.07410156 7.45617187 -0.08570313 8.49609375 -0.09765625 C11 0 11 0 12 1 C12.04092937 3.33297433 12.04241723 5.66705225 12 8 C11.01 8.33 10.02 8.66 9 9 C9 7.02 9 5.04 9 3 C8.01 4.98 7.02 6.96 6 9 C5.34 9 4.68 9 4 9 C4 7.02 4 5.04 4 3 C3.01 4.98 2.02 6.96 1 9 C0.34 9 -0.32 9 -1 9 C-0.67 6.03 -0.34 3.06 0 0 Z " fill="#080808" transform="translate(392,291)"/>
<path d="M0 0 C0.99 0 1.98 0 3 0 C2.34 4.29 1.68 8.58 1 13 C-1.31 13.66 -3.62 14.32 -6 15 C-6.66 14.34 -7.32 13.68 -8 13 C-7.625 9.375 -7.625 9.375 -7 6 C-5.02 5.67 -3.04 5.34 -1 5 C-0.67 3.35 -0.34 1.7 0 0 Z M-5 8 C-5.33 9.32 -5.66 10.64 -6 12 C-4.68 12 -3.36 12 -2 12 C-1.67 10.68 -1.34 9.36 -1 8 C-2.32 8 -3.64 8 -5 8 Z " fill="#070707" transform="translate(326,286)"/>
<path d="M0 0 C2.62451617 2.62451617 2.5832868 4.4877828 3.125 8.125 C3.29257813 9.22070312 3.46015625 10.31640625 3.6328125 11.4453125 C3.75398437 12.28835938 3.87515625 13.13140625 4 14 C3.01 14 2.02 14 1 14 C1 13.01 1 12.02 1 11 C-1.47266765 11.34444881 -1.47266765 11.34444881 -4 12 C-4.33 12.66 -4.66 13.32 -5 14 C-5.99 13.67 -6.98 13.34 -8 13 C-5.36 8.71 -2.72 4.42 0 0 Z M-1 6 C-1.33 6.99 -1.66 7.98 -2 9 C-1.34 9 -0.68 9 0 9 C-0.33 8.01 -0.66 7.02 -1 6 Z " fill="#0B0B0A" transform="translate(212,286)"/>
<path d="M0 0 C7.72822046 -0.25338428 16.38642409 -0.40905061 23 4 C23 4.99 23 5.98 23 7 C20.625 8.75 20.625 8.75 18 10 C17.34 9.67 16.68 9.34 16 9 C16.66 8.01 17.32 7.02 18 6 C17.071875 6.04125 16.14375 6.0825 15.1875 6.125 C12 6 12 6 9 4 C9 3.34 9 2.68 9 2 C7.329375 2.061875 7.329375 2.061875 5.625 2.125 C2 2 2 2 0 0 Z " fill="#4FA65A" transform="translate(49,193)"/>
<path d="M0 0 C0.66 0.33 1.32 0.66 2 1 C2 2.32 2 3.64 2 5 C2.66 5 3.32 5 4 5 C4.99 5.33 5.98 5.66 7 6 C2.26825929 9.29787989 -1.90353988 10.45269885 -7.671875 9.609375 C-10.12970907 9.12336261 -12.56586935 8.59261531 -15 8 C-15 7.67 -15 7.34 -15 7 C-13.35 7 -11.7 7 -10 7 C-10 6.34 -10 5.68 -10 5 C-6.97265625 4.36523438 -6.97265625 4.36523438 -3.9453125 3.73046875 C-1.62953451 3.07691162 -1.62953451 3.07691162 0 0 Z " fill="#4BA556" transform="translate(504,144)"/>
<path d="M0 0 C0.66 0 1.32 0 2 0 C1.67 3.63 1.34 7.26 1 11 C0.01 11.33 -0.98 11.66 -2 12 C-2 10.02 -2 8.04 -2 6 C-3.32 8.31 -4.64 10.62 -6 13 C-6.66 13 -7.32 13 -8 13 C-8.66 9.7 -9.32 6.4 -10 3 C-9.01 3 -8.02 3 -7 3 C-6.67 4.32 -6.34 5.64 -6 7 C-5.34 5.68 -4.68 4.36 -4 3 C-3.01 3 -2.02 3 -1 3 C-0.67 2.01 -0.34 1.02 0 0 Z " fill="#080808" transform="translate(363,288)"/>
<path d="M0 0 C2.05078125 0.03255208 4.1015625 0.06510417 6.15234375 0.09765625 C6.15234375 0.75765625 6.15234375 1.41765625 6.15234375 2.09765625 C4.17234375 2.42765625 2.19234375 2.75765625 0.15234375 3.09765625 C-0.17765625 4.08765625 -0.50765625 5.07765625 -0.84765625 6.09765625 C1.13234375 6.09765625 3.11234375 6.09765625 5.15234375 6.09765625 C5.15234375 6.75765625 5.15234375 7.41765625 5.15234375 8.09765625 C2.84234375 8.09765625 0.53234375 8.09765625 -1.84765625 8.09765625 C-1.84765625 9.08765625 -1.84765625 10.07765625 -1.84765625 11.09765625 C0.13234375 11.09765625 2.11234375 11.09765625 4.15234375 11.09765625 C4.15234375 11.75765625 4.15234375 12.41765625 4.15234375 13.09765625 C1.18234375 13.09765625 -1.78765625 13.09765625 -4.84765625 13.09765625 C-4.54006447 11.11772084 -4.22644945 9.13872026 -3.91015625 7.16015625 C-3.73613281 6.05800781 -3.56210937 4.95585937 -3.3828125 3.8203125 C-2.65953404 0.14056734 -2.65953404 0.14056734 0 0 Z " fill="#0B0B0B" transform="translate(337.84765625,286.90234375)"/>
<path d="M0 0 C0.77263184 -0.00451172 1.54526367 -0.00902344 2.34130859 -0.01367188 C6.23608008 -0.00350497 9.82145092 0.17032434 13.625 1.125 C13.625 1.455 13.625 1.785 13.625 2.125 C9.53182137 2.29254147 5.43843505 2.45310824 1.34472656 2.60717773 C-0.04825222 2.66059149 -1.44115893 2.71592043 -2.83398438 2.77319336 C-4.83443602 2.85512069 -6.8351875 2.92962098 -8.8359375 3.00390625 C-10.04040527 3.0510376 -11.24487305 3.09816895 -12.48583984 3.14672852 C-15.375 3.125 -15.375 3.125 -17.375 2.125 C-17.375 2.785 -17.375 3.445 -17.375 4.125 C-16.055 4.455 -14.735 4.785 -13.375 5.125 C-13.705 5.785 -14.035 6.445 -14.375 7.125 C-16.355 6.465 -18.335 5.805 -20.375 5.125 C-20.375 3.805 -20.375 2.485 -20.375 1.125 C-13.58219945 0.28712152 -6.83683105 0.016638 0 0 Z " fill="#51A557" transform="translate(369.375,106.875)"/>
<path d="M0 0 C0.763125 0.20625 1.52625 0.4125 2.3125 0.625 C2.9375 2.9375 2.9375 2.9375 3.3125 5.625 C1.3125 8.625 1.3125 8.625 -0.5625 9.4375 C-3.18602224 9.66898726 -4.46773089 8.97271696 -6.6875 7.625 C-6.375 4.75 -6.375 4.75 -5.6875 1.625 C-2.6875 -0.375 -2.6875 -0.375 0 0 Z M-1.6875 1.625 C-2.3475 2.285 -3.0075 2.945 -3.6875 3.625 C-2.3675 3.295 -1.0475 2.965 0.3125 2.625 C-0.3475 2.295 -1.0075 1.965 -1.6875 1.625 Z " fill="#070707" transform="translate(411.6875,291.375)"/>
<path d="M0 0 C0.66 0 1.32 0 2 0 C1.01 3.3 0.02 6.6 -1 10 C-0.34 10.33 0.32 10.66 1 11 C-0.625 17.75 -0.625 17.75 -4 20 C-4.69356423 22.32548007 -5.36149212 24.65880445 -6 27 C-6.66 27.33 -7.32 27.66 -8 28 C-6.00581159 18.38574208 -3.23849524 9.25467217 0 0 Z " fill="#50A85B" transform="translate(86,50)"/>
<path d="M0 0 C-0.33 2.64 -0.66 5.28 -1 8 C-3.31 8.66 -5.62 9.32 -8 10 C-8.66 9.34 -9.32 8.68 -10 8 C-9.75 4.4375 -9.75 4.4375 -9 1 C-6.04335481 -0.4783226 -3.25770263 -0.06032783 0 0 Z M-7 3 C-7.33 4.32 -7.66 5.64 -8 7 C-6.68 7 -5.36 7 -4 7 C-3.67 5.68 -3.34 4.36 -3 3 C-4.32 3 -5.64 3 -7 3 Z " fill="#060606" transform="translate(308,291)"/>
<path d="M0 0 C0.33 0.66 0.66 1.32 1 2 C1.66 2 2.32 2 3 2 C3.33 2.99 3.66 3.98 4 5 C3.34 5 2.68 5 2 5 C2 5.66 2 6.32 2 7 C1.34 7 0.68 7 0 7 C0 7.66 0 8.32 0 9 C-0.99 9 -1.98 9 -3 9 C-2.34 7.68 -1.68 6.36 -1 5 C-5.95 5 -10.9 5 -16 5 C-13.22420239 2.22420239 -10.69693063 2.13938613 -6.875 1.375 C-5.59367188 1.11460937 -4.31234375 0.85421875 -2.9921875 0.5859375 C-2.00476563 0.39257812 -1.01734375 0.19921875 0 0 Z " fill="#51A859" transform="translate(178,155)"/>
<path d="M0 0 C0.33 0 0.66 0 1 0 C1 4.62 1 9.24 1 14 C-0.32 14.33 -1.64 14.66 -3 15 C-3.19335938 14.35546875 -3.38671875 13.7109375 -3.5859375 13.046875 C-4.88708247 10.65648799 -4.88708247 10.65648799 -8.0390625 10.390625 C-9.81410156 10.32101563 -9.81410156 10.32101563 -11.625 10.25 C-12.81351562 10.19328125 -14.00203125 10.1365625 -15.2265625 10.078125 C-16.14179688 10.05234375 -17.05703125 10.0265625 -18 10 C-18 9.34 -18 8.68 -18 8 C-12.72 8.33 -7.44 8.66 -2 9 C-1.34 6.03 -0.68 3.06 0 0 Z " fill="#4FA157" transform="translate(284,123)"/>
<path d="M0 0 C0.66 0 1.32 0 2 0 C1.34 3.96 0.68 7.92 0 12 C-0.99 12 -1.98 12 -3 12 C-2.67 10.02 -2.34 8.04 -2 6 C-2.99 6 -3.98 6 -5 6 C-5.33 7.98 -5.66 9.96 -6 12 C-6.99 11.67 -7.98 11.34 -9 11 C-8.34 8.36 -7.68 5.72 -7 3 C-6.21625 3.061875 -5.4325 3.12375 -4.625 3.1875 C-3.75875 3.125625 -2.8925 3.06375 -2 3 C-1.34 2.01 -0.68 1.02 0 0 Z " fill="#0A0A0A" transform="translate(236,288)"/>
<path d="M0 0 C0.7425 0.2475 1.485 0.495 2.25 0.75 C2.875 3.0625 2.875 3.0625 3.25 5.75 C1.25 8.75 1.25 8.75 -0.6875 9.5 C-2.75 9.75 -2.75 9.75 -5.75 8.75 C-6.5 6.5 -6.5 6.5 -6.75 3.75 C-4.64876805 0.67896869 -3.78845323 -0.34440484 0 0 Z M-1.75 1.75 C-2.41 2.41 -3.07 3.07 -3.75 3.75 C-3.75 4.74 -3.75 5.73 -3.75 6.75 C-2.43 6.42 -1.11 6.09 0.25 5.75 C0.25 4.76 0.25 3.77 0.25 2.75 C-0.41 2.42 -1.07 2.09 -1.75 1.75 Z " fill="#0A0C0A" transform="translate(140.75,291.25)"/>
<path d="M0 0 C1.65 0 3.3 0 5 0 C5.43200679 4.75207471 3.98489083 7.78210698 2 12 C0.68 12 -0.64 12 -2 12 C-2 9.03 -2 6.06 -2 3 C-1.34 3 -0.68 3 0 3 C0 2.01 0 1.02 0 0 Z " fill="#45A950" transform="translate(406,109)"/>
<path d="M0 0 C0.66 0 1.32 0 2 0 C3.40318642 4.20955927 1.88224523 6.09608396 0 10 C-0.99 11.485 -0.99 11.485 -2 13 C-3.32 13 -4.64 13 -6 13 C-6.33 13.66 -6.66 14.32 -7 15 C-8.32 14.67 -9.64 14.34 -11 14 C-10.67 14.99 -10.34 15.98 -10 17 C-11.98 17 -13.96 17 -16 17 C-15.67 15.68 -15.34 14.36 -15 13 C-14.24074219 12.89042969 -13.48148437 12.78085938 -12.69921875 12.66796875 C-11.70535156 12.50941406 -10.71148437 12.35085937 -9.6875 12.1875 C-8.70136719 12.03667969 -7.71523438 11.88585937 -6.69921875 11.73046875 C-3.80825806 10.94811036 -2.70854108 10.42792679 -1 8 C-0.42982192 5.95899762 -0.42982192 5.95899762 -0.3125 3.8125 C-0.1578125 1.9253125 -0.1578125 1.9253125 0 0 Z " fill="#4FA758" transform="translate(381,117)"/>
<path d="M0 0 C7.40399153 0.50196553 7.40399153 0.50196553 10.28125 2.90625 C13.58034972 5.44693599 16.83596751 6.3215082 20.8125 7.25 C21.50537109 7.42273438 22.19824219 7.59546875 22.91210938 7.7734375 C24.60525594 8.19380492 26.30227443 8.59852527 28 9 C28 9.66 28 10.32 28 11 C17.92293805 10.40723165 8.48741197 6.32930519 0 1 C0 0.67 0 0.34 0 0 Z " fill="#549E5D" transform="translate(20,174)"/>
<path d="M0 0 C0.66 0 1.32 0 2 0 C2 8.58 2 17.16 2 26 C0 25 0 25 -0.61669922 23.18554688 C-1.23809355 19.64241183 -1.14326032 16.08510949 -1.125 12.5 C-1.12886719 11.74074219 -1.13273437 10.98148438 -1.13671875 10.19921875 C-1.13046768 6.62985544 -0.96340936 3.43268398 0 0 Z " fill="#51A55B" transform="translate(469,115)"/>
<path d="M0 0 C2.33294775 -0.04241723 4.66702567 -0.04092937 7 0 C7.33 0.33 7.66 0.66 8 1 C7.82364548 3.69082872 7.38164079 6.32851446 7 9 C6.34 9 5.68 9 5 9 C5 7.35 5 5.7 5 4 C4.34 4 3.68 4 3 4 C2.34 5.65 1.68 7.3 1 9 C0.34 9 -0.32 9 -1 9 C-0.67 6.03 -0.34 3.06 0 0 Z " fill="#060606" transform="translate(309,291)"/>
<path d="M0 0 C0 3 0 6 0 9 C-6.75 8.125 -6.75 8.125 -9 7 C-8 4 -8 4 -6.15234375 2.83203125 C-5.42144531 2.49558594 -4.69054687 2.15914062 -3.9375 1.8125 C-3.20402344 1.46832031 -2.47054688 1.12414062 -1.71484375 0.76953125 C-1.14894531 0.51558594 -0.58304688 0.26164063 0 0 Z " fill="#48AC55" transform="translate(32,198)"/>
<path d="M0 0 C0.33 0 0.66 0 1 0 C1.33 11.22 1.66 22.44 2 34 C0.35 34.66 -1.3 35.32 -3 36 C-3.33 36.66 -3.66 37.32 -4 38 C-4.99 38 -5.98 38 -7 38 C-7 37.01 -7 36.02 -7 35 C-5.02 34.34 -3.04 33.68 -1 33 C-0.67 22.11 -0.34 11.22 0 0 Z " fill="#50A158" transform="translate(422,114)"/>
<path d="M0 0 C1.99954746 -0.04254356 4.00041636 -0.04080783 6 0 C7 1 7 1 7.125 3.9375 C7 7 7 7 6 9 C5.34 9 4.68 9 4 9 C4.33 7.02 4.66 5.04 5 3 C4.01 3 3.02 3 2 3 C1.67 4.98 1.34 6.96 1 9 C0.01 9 -0.98 9 -2 9 C-1.34 6.03 -0.68 3.06 0 0 Z " fill="#080807" transform="translate(383,291)"/>
<path d="M0 0 C0.33 0.99 0.66 1.98 1 3 C-0.98 3 -2.96 3 -5 3 C-5.33 3.99 -5.66 4.98 -6 6 C-4.02 5.67 -2.04 5.34 0 5 C-0.33 5.99 -0.66 6.98 -1 8 C-2.875 8.8125 -2.875 8.8125 -5 9 C-5.99 8.34 -6.98 7.68 -8 7 C-7.74438677 4.6568787 -7.40729228 2.32156597 -7 0 C-4.3333581 -1.33332095 -2.83319697 -0.67102033 0 0 Z " fill="#0B0B09" transform="translate(246,292)"/>
<path d="M0 0 C1.99954746 -0.04254356 4.00041636 -0.04080783 6 0 C7 1 7 1 7.125 3.9375 C7 7 7 7 6 9 C5.34 9 4.68 9 4 9 C4.33 7.02 4.66 5.04 5 3 C4.01 3 3.02 3 2 3 C1.67 4.98 1.34 6.96 1 9 C0.01 9 -0.98 9 -2 9 C-1.34 6.03 -0.68 3.06 0 0 Z " fill="#080A09" transform="translate(417,291)"/>
<path d="M0 0 C2 1 2 1 3 3.9375 C3.33 4.948125 3.66 5.95875 4 7 C4.66 7.66 5.32 8.32 6 9 C6.67258667 11.33163378 7.33847444 13.6652039 8 16 C8.556875 17.0725 9.11375 18.145 9.6875 19.25 C11 22 11 22 10 25 C8.705826 22.43873936 7.41459216 19.87606642 6.125 17.3125 C5.76019531 16.59126953 5.39539063 15.87003906 5.01953125 15.12695312 C0 5.13352273 0 5.13352273 0 0 Z " fill="#519E59" transform="translate(23,114)"/>
<path d="M0 0 C0.66 0 1.32 0 2 0 C1.67 2.31 1.34 4.62 1 7 C1.99 7 2.98 7 4 7 C4.33 4.69 4.66 2.38 5 0 C5.99 0 6.98 0 8 0 C7.34 2.97 6.68 5.94 6 9 C1.25 10.125 1.25 10.125 -1 9 C-1.125 2.25 -1.125 2.25 0 0 Z " fill="#0C0C0A" transform="translate(249,291)"/>
<path d="M0 0 C2.12038635 2.61514317 4.13091744 5.19637616 6 8 C4.68 8 3.36 8 2 8 C2.33 8.99 2.66 9.98 3 11 C6.00847418 12.22520264 6.00847418 12.22520264 9 13 C5.95893861 13.97748402 3.96638678 14.29779422 1 13 C-1.25 10.4375 -1.25 10.4375 -3 8 C-2 7 -1 6 0 5 C0.04063832 3.33382885 0.042721 1.66611905 0 0 Z " fill="#49A855" transform="translate(306,139)"/>
<path d="M0 0 C1.99954746 -0.04254356 4.00041636 -0.04080783 6 0 C7 1 7 1 7.0625 4.5625 C7.041875 5.696875 7.02125 6.83125 7 8 C6.01 8.33 5.02 8.66 4 9 C4 7.02 4 5.04 4 3 C3.34 3 2.68 3 2 3 C1.67 4.98 1.34 6.96 1 9 C0.01 8.67 -0.98 8.34 -2 8 C-1.34 5.36 -0.68 2.72 0 0 Z " fill="#0A0A08" transform="translate(345,291)"/>
<path d="M0 0 C7.59 0 15.18 0 23 0 C23.33 1.32 23.66 2.64 24 4 C22.68 3.67 21.36 3.34 20 3 C20.33 2.34 20.66 1.68 21 1 C14.73 1 8.46 1 2 1 C2 1.66 2 2.32 2 3 C3.32 3 4.64 3 6 3 C6 3.66 6 4.32 6 5 C3.03 4.505 3.03 4.505 0 4 C0 2.68 0 1.36 0 0 Z " fill="#54A15C" transform="translate(454,108)"/>
<path d="M0 0 C1.32 0 2.64 0 4 0 C4 0.66 4 1.32 4 2 C3.01 2 2.02 2 1 2 C1 2.99 1 3.98 1 5 C1.66 5 2.32 5 3 5 C3 5.66 3 6.32 3 7 C2.01 7 1.02 7 0 7 C-0.33 9.31 -0.66 11.62 -1 14 C-1.66 14 -2.32 14 -3 14 C-3 11.03 -3 8.06 -3 5 C-2.34 5 -1.68 5 -1 5 C-0.67 3.35 -0.34 1.7 0 0 Z " fill="#080B09" transform="translate(132,286)"/>
<path d="M0 0 C0.66 0 1.32 0 2 0 C2 2.97 2 5.94 2 9 C1.01 9 0.02 9 -1 9 C-1.19335938 8.35546875 -1.38671875 7.7109375 -1.5859375 7.046875 C-2.88708247 4.65648799 -2.88708247 4.65648799 -6.0390625 4.390625 C-7.81410156 4.32101563 -7.81410156 4.32101563 -9.625 4.25 C-10.81351562 4.19328125 -12.00203125 4.1365625 -13.2265625 4.078125 C-14.14179688 4.05234375 -15.05703125 4.0265625 -16 4 C-16 3.67 -16 3.34 -16 3 C-15.00097656 2.93941406 -14.00195312 2.87882812 -12.97265625 2.81640625 C-11.68230469 2.73261719 -10.39195312 2.64882812 -9.0625 2.5625 C-7.77472656 2.48128906 -6.48695313 2.40007812 -5.16015625 2.31640625 C-2.13976043 2.35080812 -2.13976043 2.35080812 -1 1 C-0.67 0.67 -0.34 0.34 0 0 Z " fill="#4EAB57" transform="translate(284,109)"/>
<path d="M0 0 C1.98 0.495 1.98 0.495 4 1 C3.01 1.495 3.01 1.495 2 2 C2.49113281 2.54140625 2.98226563 3.0828125 3.48828125 3.640625 C5.3667612 6.57241283 5.31060725 8.30299691 5.1875 11.75 C5.14689453 13.22726563 5.14689453 13.22726563 5.10546875 14.734375 C5.07066406 15.48203125 5.03585938 16.2296875 5 17 C2.55483149 14.55483149 2.27418478 12.82921693 1.4375 9.5 C0.49319669 5.6475828 0.49319669 5.6475828 -1 2 C-0.67 1.34 -0.34 0.68 0 0 Z " fill="#51A25A" transform="translate(18,97)"/>
<path d="M0 0 C0.78375 0.04125 1.5675 0.0825 2.375 0.125 C2.045 2.765 1.715 5.405 1.375 8.125 C0.385 7.465 -0.605 6.805 -1.625 6.125 C-2.615 6.62 -2.615 6.62 -3.625 7.125 C-4.285 6.795 -4.945 6.465 -5.625 6.125 C-4.86443086 2.32215429 -4.27658992 0.20364714 0 0 Z " fill="#40AF4C" transform="translate(490.625,109.875)"/>
<path d="M0 0 C0.66 0.33 1.32 0.66 2 1 C3.64563272 6.64904331 4.55494773 12.24669342 3 18 C1.35 17.67 -0.3 17.34 -2 17 C-1.01 16.67 -0.02 16.34 1 16 C0.67 10.72 0.34 5.44 0 0 Z " fill="#52A358" transform="translate(73,158)"/>
<path d="M0 0 C4.62 0 9.24 0 14 0 C14 0.33 14 0.66 14 1 C12.35 1 10.7 1 9 1 C10.25541557 3.51083114 11.50063488 3.87125446 14 5 C13.67 5.66 13.34 6.32 13 7 C12.46375 6.690625 11.9275 6.38125 11.375 6.0625 C8.6015043 4.82172561 5.99957163 4.4090325 3 4 C3 3.34 3 2.68 3 2 C2.01 1.34 1.02 0.68 0 0 Z " fill="#53A259" transform="translate(313,107)"/>
<path d="M0 0 C0.66 0.66 1.32 1.32 2 2 C1.44570312 2.38671875 0.89140625 2.7734375 0.3203125 3.171875 C-0.76636719 3.95304688 -0.76636719 3.95304688 -1.875 4.75 C-2.59429687 5.26046875 -3.31359375 5.7709375 -4.0546875 6.296875 C-6.08570565 8.07503547 -6.97855012 9.52701607 -8 12 C-8.66 12 -9.32 12 -10 12 C-10 10.35 -10 8.7 -10 7 C-8.68 6.67 -7.36 6.34 -6 6 C-6 5.01 -6 4.02 -6 3 C-5.34 3 -4.68 3 -4 3 C-4 2.34 -4 1.68 -4 1 C-2.68 1.33 -1.36 1.66 0 2 C0 1.34 0 0.68 0 0 Z " fill="#4DAA5D" transform="translate(130,171)"/>
<path d="M0 0 C2.11486702 3.43665891 2.0828286 6.02422713 2 10 C2.43941523 12.26566343 2.43941523 12.26566343 3 14 C2.01 14 1.02 14 0 14 C-2.05459372 8.40693931 -2.05459372 5.59306069 0 0 Z " fill="#42AB49" transform="translate(89,156)"/>
<path d="M0 0 C0.66 0 1.32 0 2 0 C2 0.99 2 1.98 2 3 C2.66 3 3.32 3 4 3 C4 3.66 4 4.32 4 5 C3.01 5 2.02 5 1 5 C0.67 7.31 0.34 9.62 0 12 C-0.66 12 -1.32 12 -2 12 C-1.67 9.69 -1.34 7.38 -1 5 C-1.66 5 -2.32 5 -3 5 C-3 4.34 -3 3.68 -3 3 C-2.01 3 -1.02 3 0 3 C0 2.01 0 1.02 0 0 Z " fill="#070908" transform="translate(428,288)"/>
<path d="M0 0 C2.375 0.1875 2.375 0.1875 5 1 C6.3125 3.5625 6.3125 3.5625 7 6 C6.01 6 5.02 6 4 6 C3.67 7.32 3.34 8.64 3 10 C2.34 10 1.68 10 1 10 C0.67 6.7 0.34 3.4 0 0 Z " fill="#4CA854" transform="translate(482,139)"/>
<path d="M0 0 C0.33 0.66 0.66 1.32 1 2 C2.65 1.67 4.3 1.34 6 1 C3.80061401 3.28186297 1.498574 5.30035514 -1 7.25 C-2.0209375 8.06210938 -2.0209375 8.06210938 -3.0625 8.890625 C-3.701875 9.25671875 -4.34125 9.6228125 -5 10 C-5.99 9.67 -6.98 9.34 -8 9 C-7.38125 8.608125 -6.7625 8.21625 -6.125 7.8125 C-3.66337724 5.71288059 -3.10133285 3.98933203 -2 1 C-1.34 0.67 -0.68 0.34 0 0 Z " fill="#4DA85A" transform="translate(156,98)"/>
<path d="M0 0 C0.33 0 0.66 0 1 0 C1 1.65 1 3.3 1 5 C0.34 5 -0.32 5 -1 5 C-1.2475 5.680625 -1.495 6.36125 -1.75 7.0625 C-3.24197908 10.56865083 -5.06835511 13.71620368 -7 17 C-7.66 17 -8.32 17 -9 17 C-7.51463956 12.97683781 -5.60123107 9.38707358 -3.4375 5.6875 C-2.81746094 4.61886719 -2.19742188 3.55023438 -1.55859375 2.44921875 C-1.04425781 1.64097656 -0.52992188 0.83273438 0 0 Z " fill="#52A75F" transform="translate(154,127)"/>
<path d="M0 0 C3.57849992 0.29820833 4.76226484 0.74245358 7.25 3.4375 C9.88519321 7.29617577 10.10136523 9.33719955 10 14 C9.67 14 9.34 14 9 14 C8.34 12.02 7.68 10.04 7 8 C6.34 8 5.68 8 5 8 C4.34 8.66 3.68 9.32 3 10 C3.33 8.68 3.66 7.36 4 6 C4.66 6 5.32 6 6 6 C6 5.34 6 4.68 6 4 C5.34 4 4.68 4 4 4 C4 3.34 4 2.68 4 2 C2.68 1.34 1.36 0.68 0 0 Z " fill="#4FA559" transform="translate(383,109)"/>
<path d="M0 0 C1.98 0.66 3.96 1.32 6 2 C4.375 4 4.375 4 2 6 C-1.25 6.25 -1.25 6.25 -4 6 C-3.34 4.68 -2.68 3.36 -2 2 C-1.34 2 -0.68 2 0 2 C0 1.34 0 0.68 0 0 Z " fill="#47AB4D" transform="translate(332,144)"/>
<path d="M0 0 C5.44208234 0.34013015 8.93668198 3.70296528 13 7 C12.67 7.66 12.34 8.32 12 9 C11.01 8.34 10.02 7.68 9 7 C8.01 7.66 7.02 8.32 6 9 C6 6 6 6 7 4 C6.030625 3.71125 5.06125 3.4225 4.0625 3.125 C1 2 1 2 0 0 Z " fill="#4DA254" transform="translate(328,108)"/>
<path d="M0 0 C0.94875 0.04125 1.8975 0.0825 2.875 0.125 C2.545 1.115 2.215 2.105 1.875 3.125 C2.535 3.455 3.195 3.785 3.875 4.125 C2.225 4.785 0.575 5.445 -1.125 6.125 C-2.445 4.805 -3.765 3.485 -5.125 2.125 C-3.125 0.125 -3.125 0.125 0 0 Z " fill="#41B34D" transform="translate(8.125,158.875)"/>
<path d="M0 0 C1.65 0 3.3 0 5 0 C5 0.99 5 1.98 5 3 C4.01 3 3.02 3 2 3 C1.67 4.98 1.34 6.96 1 9 C0.01 8.67 -0.98 8.34 -2 8 C-1.34 5.36 -0.68 2.72 0 0 Z " fill="#0A0B0B" transform="translate(146,291)"/>
<path d="M0 0 C0.66 0.33 1.32 0.66 2 1 C2.33 0.67 2.66 0.34 3 0 C4.32 0 5.64 0 7 0 C7 0.99 7 1.98 7 3 C1.06 3 -4.88 3 -11 3 C-11 2.67 -11 2.34 -11 2 C-7.37 2 -3.74 2 0 2 C0 1.34 0 0.68 0 0 Z " fill="#4EA556" transform="translate(434,149)"/>
<path d="M0 0 C0.66 0 1.32 0 2 0 C2 0.66 2 1.32 2 2 C2.66 2 3.32 2 4 2 C4.37125 3.175625 4.37125 3.175625 4.75 4.375 C6.15389099 7.32317108 7.00675737 7.9024777 10 9 C9.01 9.99 8.02 10.98 7 12 C5.82767315 10.3790787 4.6622923 8.75313167 3.5 7.125 C2.8503125 6.22007812 2.200625 5.31515625 1.53125 4.3828125 C0 2 0 2 0 0 Z " fill="#4E9C57" transform="translate(34,139)"/>
<path d="M0 0 C2.475 0.495 2.475 0.495 5 1 C5.061875 1.5775 5.12375 2.155 5.1875 2.75 C6.32497695 5.89993618 8.33920195 7.05307459 11 9 C11.66 9.66 12.32 10.32 13 11 C8.37965427 10.54686627 6.63374775 9.00664515 3.6875 5.5 C2.99011719 4.6853125 2.29273438 3.870625 1.57421875 3.03125 C0 1 0 1 0 0 Z " fill="#52A05D" transform="translate(377,141)"/>
<path d="M0 0 C6.15234375 0.5859375 6.15234375 0.5859375 8 1 C8.33 1.66 8.66 2.32 9 3 C6 4.5 6 4.5 3 6 C3 5.34 3 4.68 3 4 C2.34 4 1.68 4 1 4 C0.67 2.68 0.34 1.36 0 0 Z " fill="#3DB644" transform="translate(370,131)"/>
<path d="M0 0 C-1.20381448 2.49361571 -2.45428722 4.68143083 -4 7 C-4.66 7 -5.32 7 -6 7 C-6.66 8.65 -7.32 10.3 -8 12 C-8.33 11.01 -8.66 10.02 -9 9 C-8.34 8.01 -7.68 7.02 -7 6 C-6.34 6 -5.68 6 -5 6 C-5 4.68 -5 3.36 -5 2 C-2 0 -2 0 0 0 Z " fill="#53A55B" transform="translate(133,123)"/>
<path d="M0 0 C0.66 0.33 1.32 0.66 2 1 C1.01 2.485 1.01 2.485 0 4 C1.32 4 2.64 4 4 4 C4.33 4.99 4.66 5.98 5 7 C3.02 7.33 1.04 7.66 -1 8 C-1.66 6.68 -2.32 5.36 -3 4 C-2.01 2.68 -1.02 1.36 0 0 Z " fill="#4AAE55" transform="translate(125,163)"/>
<path d="M0 0 C4.82360189 -0.19294408 8.49646738 0.24252386 13 2 C12.67 2.99 12.34 3.98 12 5 C11.505 4.71125 11.01 4.4225 10.5 4.125 C7.08247965 2.58711584 3.6493798 1.85152195 0 1 C0 0.67 0 0.34 0 0 Z " fill="#53A259" transform="translate(20,159)"/>
<path d="M0 0 C0.90105469 0.00902344 1.80210937 0.01804687 2.73046875 0.02734375 C3.41753906 0.03894531 4.10460937 0.05054687 4.8125 0.0625 C4.8125 0.3925 4.8125 0.7225 4.8125 1.0625 C1.73632812 1.35546875 1.73632812 1.35546875 -1.33984375 1.6484375 C-1.94957031 1.78507812 -2.55929687 1.92171875 -3.1875 2.0625 C-3.5175 2.7225 -3.8475 3.3825 -4.1875 4.0625 C-3.5275 4.3925 -2.8675 4.7225 -2.1875 5.0625 C-3.1775 5.0625 -4.1675 5.0625 -5.1875 5.0625 C-5.1875 4.4025 -5.1875 3.7425 -5.1875 3.0625 C-6.8375 3.0625 -8.4875 3.0625 -10.1875 3.0625 C-7.02470604 -0.10029396 -4.26614261 -0.05540445 0 0 Z " fill="#569F5F" transform="translate(498.1875,106.9375)"/>
<path d="M0 0 C3 1.5 3 1.5 6 3 C5.67 3.99 5.34 4.98 5 6 C4.21625 5.814375 3.4325 5.62875 2.625 5.4375 C0.02910225 4.74037734 0.02910225 4.74037734 -2 6 C-1.49396008 3.83125748 -1.00016187 2.00032373 0 0 Z " fill="#101010" transform="translate(284,292)"/>
<path d="M0 0 C0 0.99 0 1.98 0 3 C-2 5 -2 5 -4.625 5.125 C-5.40875 5.08375 -6.1925 5.0425 -7 5 C-7 5.66 -7 6.32 -7 7 C-7.66 7 -8.32 7 -9 7 C-8 4 -8 4 -6.15234375 2.83203125 C-5.42144531 2.49558594 -4.69054687 2.15914062 -3.9375 1.8125 C-3.20402344 1.46832031 -2.47054688 1.12414062 -1.71484375 0.76953125 C-1.14894531 0.51558594 -0.58304688 0.26164063 0 0 Z " fill="#57A55E" transform="translate(32,198)"/>
<path d="M0 0 C0.99 0.33 1.98 0.66 3 1 C2.67 1.99 2.34 2.98 2 4 C1.195625 4.12375 0.39125 4.2475 -0.4375 4.375 C-1.7059375 4.684375 -1.7059375 4.684375 -3 5 C-3.33 5.66 -3.66 6.32 -4 7 C-4 4 -4 4 -3 1 C-2.01 1.33 -1.02 1.66 0 2 C0 1.34 0 0.68 0 0 Z " fill="#38AF42" transform="translate(62,178)"/>
<path d="M0 0 C1.32 0.66 2.64 1.32 4 2 C4 2.99 4 3.98 4 5 C1.625 6.75 1.625 6.75 -1 8 C-1.66 7.67 -2.32 7.34 -3 7 C-2.505 6.401875 -2.01 5.80375 -1.5 5.1875 C0.28276418 3.02970006 0.28276418 3.02970006 0 0 Z " fill="#4AB15C" transform="translate(68,195)"/>
<path d="M0 0 C0.99 0.66 1.98 1.32 3 2 C3 2.66 3 3.32 3 4 C1 5.625 1 5.625 -1 7 C-1.66 6.67 -2.32 6.34 -3 6 C-1.125 1.125 -1.125 1.125 0 0 Z " fill="#3DB547" transform="translate(128,161)"/>
<path d="M0 0 C0.99 0.33 1.98 0.66 3 1 C4.10370043 4.3111013 3.92673641 6.24748949 3.5625 9.6875 C3.40974609 11.17830078 3.40974609 11.17830078 3.25390625 12.69921875 C3.12822266 13.83810547 3.12822266 13.83810547 3 15 C2.67 15 2.34 15 2 15 C1.93941406 14.33613281 1.87882812 13.67226562 1.81640625 12.98828125 C1.20136493 6.45091919 1.20136493 6.45091919 0 0 Z " fill="#3FB244" transform="translate(74,113)"/>
<path d="M0 0 C0.515625 0.2475 1.03125 0.495 1.5625 0.75 C-4.8375 4.81153846 -4.8375 4.81153846 -7.875 4.5 C-8.390625 4.2525 -8.90625 4.005 -9.4375 3.75 C-3.0375 -0.31153846 -3.0375 -0.31153846 0 0 Z " fill="#50A457" transform="translate(311.4375,108.25)"/>
<path d="M0 0 C2.97 0.33 5.94 0.66 9 1 C8.67 2.32 8.34 3.64 8 5 C4.5625 4.1875 4.5625 4.1875 1 3 C0.67 2.01 0.34 1.02 0 0 Z " fill="#101010" transform="translate(406,294)"/>
<path d="M0 0 C0.82757813 0.23009766 0.82757813 0.23009766 1.671875 0.46484375 C4.20317383 1.04670271 6.66441972 1.32435445 9.25 1.5625 C10.14203125 1.64628906 11.0340625 1.73007813 11.953125 1.81640625 C12.62859375 1.87699219 13.3040625 1.93757812 14 2 C14 2.33 14 2.66 14 3 C9.38 3 4.76 3 0 3 C0 2.01 0 1.02 0 0 Z " fill="#4DA559" transform="translate(250,149)"/>
<path d="M0 0 C1.5625 1.1875 1.5625 1.1875 3 3 C2.8125 5.625 2.8125 5.625 2 8 C1.01 8.495 1.01 8.495 0 9 C-1.125 3.375 -1.125 3.375 0 0 Z " fill="#3CB145" transform="translate(58,130)"/>
<path d="M0 0 C0 0.66 0 1.32 0 2 C-2.64 2.33 -5.28 2.66 -8 3 C-7.67 2.01 -7.34 1.02 -7 0 C-4.3333581 -1.33332095 -2.83319697 -0.67102033 0 0 Z " fill="#0C0E0B" transform="translate(184,292)"/>
<path d="M0 0 C2.31 1.65 4.62 3.3 7 5 C6.01 5.495 6.01 5.495 5 6 C2.8359375 5.22265625 2.8359375 5.22265625 0.375 4.0625 C-0.44226563 3.68222656 -1.25953125 3.30195313 -2.1015625 2.91015625 C-2.72804687 2.60980469 -3.35453125 2.30945313 -4 2 C-2.68 1.34 -1.36 0.68 0 0 Z " fill="#57A060" transform="translate(151,197)"/>
<path d="M0 0 C1.9375 0.6875 1.9375 0.6875 4 2 C4.75 4.625 4.75 4.625 5 7 C3.0625 6.3125 3.0625 6.3125 1 5 C0.25 2.375 0.25 2.375 0 0 Z " fill="#46AE56" transform="translate(374,134)"/>
<path d="M0 0 C1.65 0 3.3 0 5 0 C4.01 0.495 4.01 0.495 3 1 C3 1.66 3 2.32 3 3 C4.32 3.33 5.64 3.66 7 4 C6.67 4.66 6.34 5.32 6 6 C4.02 5.34 2.04 4.68 0 4 C0 2.68 0 1.36 0 0 Z " fill="#56A262" transform="translate(349,108)"/>
<path d="M0 0 C0.99 0.33 1.98 0.66 3 1 C2.01 1.33 1.02 1.66 0 2 C-1.22520264 5.00847418 -1.22520264 5.00847418 -2 8 C-2.33 8 -2.66 8 -3 8 C-2.74438677 5.6568787 -2.40729228 3.32156597 -2 1 C-1.34 0.67 -0.68 0.34 0 0 Z " fill="#0C0C0C" transform="translate(301,291)"/>
<path d="M0 0 C1.65 0 3.3 0 5 0 C5.33 1.32 5.66 2.64 6 4 C4.68 4.33 3.36 4.66 2 5 C1.34 3.35 0.68 1.7 0 0 Z " fill="#3EB449" transform="translate(444,109)"/>
<path d="M0 0 C0.598125 0.309375 1.19625 0.61875 1.8125 0.9375 C4.08956772 2.10209704 4.08956772 2.10209704 7 3 C7.6875 5.0625 7.6875 5.0625 8 7 C4.2047869 5.50902342 2.38957269 3.24299151 0 0 Z " fill="#579E60" transform="translate(8,164)"/>
<path d="M0 0 C0.99 0.33 1.98 0.66 3 1 C4.1875 3.5625 4.1875 3.5625 5 6 C3.68 5.67 2.36 5.34 1 5 C0.67 3.35 0.34 1.7 0 0 Z " fill="#4FA658" transform="translate(47,154)"/>
<path d="M0 0 C1.65 0.33 3.3 0.66 5 1 C5 1.99 5 2.98 5 4 C2.03 3.505 2.03 3.505 -1 3 C-0.67 2.01 -0.34 1.02 0 0 Z " fill="#050504" transform="translate(220,291)"/>
<path d="M0 0 C2.64 0.33 5.28 0.66 8 1 C8 1.66 8 2.32 8 3 C5.36 2.67 2.72 2.34 0 2 C0 1.34 0 0.68 0 0 Z " fill="#4FAB5A" transform="translate(40,182)"/>
<path d="M0 0 C2.475 0.495 2.475 0.495 5 1 C3.515 3.475 3.515 3.475 2 6 C1.34 5.34 0.68 4.68 0 4 C0 2.68 0 1.36 0 0 Z " fill="#3BB84A" transform="translate(485,144)"/>
<path d="M0 0 C1.485 0.99 1.485 0.99 3 2 C3.1875 5.125 3.1875 5.125 3 8 C1 7 1 7 -0.1875 4.5625 C-1 2 -1 2 0 0 Z " fill="#3BB343" transform="translate(163,99)"/>
<path d="M0 0 C0.99 0 1.98 0 3 0 C2.34 1.98 1.68 3.96 1 6 C0.34 6 -0.32 6 -1 6 C-0.67 4.02 -0.34 2.04 0 0 Z " fill="#0A0A08" transform="translate(196,297)"/>
<path d="" fill="#00FF00" transform="translate(0,0)"/>
<path d="" fill="#00FF00" transform="translate(0,0)"/>
</svg>
